HIERARCHY
ROOT Hips
{
	OFFSET 0.000000 71.427986 0.000000
	CHANNELS 6 Xposition Yposition Zposition Xrotation Yrotation Zrotation
	JOINT Pelvis
	{
		OFFSET 0.000000 0.000000 0.000000
		CHANNELS 3 Xrotation Yrotation Zrotation
		JOINT LeftUpLeg
		{
			OFFSET 6.797100 -2.508499 -1.318700
			CHANNELS 3 Xrotation Yrotation Zrotation
			JOINT LeftLeg
			{
				OFFSET 0.069008 -29.241863 0.690200
				CHANNELS 3 Xrotation Yrotation Zrotation
				JOINT LeftFoot
				{
					OFFSET -0.069008 -29.568123 -0.266800
					CHANNELS 3 Xrotation Yrotation Zrotation
					JOINT LeftToeBase
					{
						OFFSET 3.145500 -8.631000 16.059900
						CHANNELS 3 Xrotation Yrotation Zrotation
						End Site
						{
							OFFSET 0.000000 18.501587 0.000000
						}
					}
				}
			}
			JOINT Left_ShortSleeve
			{
				OFFSET 0.265923 -10.480953 1.153800
				CHANNELS 3 Xrotation Yrotation Zrotation
				End Site
				{
					OFFSET 1.725763 19.823879 0.000000
				}
			}
		}
		JOINT RightUpLeg
		{
			OFFSET -6.797100 -2.508499 -1.318700
			CHANNELS 3 Xrotation Yrotation Zrotation
			JOINT RightLeg
			{
				OFFSET -0.082453 -29.241932 0.688000
				CHANNELS 3 Xrotation Yrotation Zrotation
				JOINT RightFoot
				{
					OFFSET 0.082453 -29.568058 -0.264600
					CHANNELS 3 Xrotation Yrotation Zrotation
					JOINT RightToeBase
					{
						OFFSET -3.115300 -8.682800 16.113400
						CHANNELS 3 Xrotation Yrotation Zrotation
						End Site
						{
							OFFSET 0.000000 18.567114 0.000000
						}
					}
				}
			}
			JOINT Right_ShortSleeve
			{
				OFFSET -0.265923 -10.480953 1.153800
				CHANNELS 3 Xrotation Yrotation Zrotation
				End Site
				{
					OFFSET -1.725766 19.823910 0.000000
				}
			}
		}
	}
	JOINT Spine
	{
		OFFSET 0.000000 13.368103 0.470500
		CHANNELS 3 Xrotation Yrotation Zrotation
		JOINT Spine1
		{
			OFFSET 0.147000 13.837402 0.538800
			CHANNELS 3 Xrotation Yrotation Zrotation
			JOINT Spine2
			{
				OFFSET 0.168000 16.242897 -1.435500
				CHANNELS 3 Xrotation Yrotation Zrotation
				JOINT Neck
				{
					OFFSET 0.217200 18.631500 -1.679100
					CHANNELS 3 Xrotation Yrotation Zrotation
					JOINT Head
					{
						OFFSET 0.000000 6.599396 1.385900
						CHANNELS 3 Xrotation Yrotation Zrotation
						JOINT Hat
						{
							OFFSET -0.532200 27.220596 -10.096100
							CHANNELS 3 Xrotation Yrotation Zrotation
							End Site
							{
								OFFSET 0.000000 22.029861 0.000000
							}
						}
						JOINT HairD
						{
							OFFSET -10.777400 17.437393 -1.325900
							CHANNELS 3 Xrotation Yrotation Zrotation
							JOINT HairD1
							{
								OFFSET -3.290299 -11.051193 1.062200
								CHANNELS 3 Xrotation Yrotation Zrotation
								End Site
								{
									OFFSET 0.000000 11.579437 0.000000
								}
							}
						}
						JOINT HairB
						{
							OFFSET -10.777400 17.437393 1.467900
							CHANNELS 3 Xrotation Yrotation Zrotation
							JOINT HairB1
							{
								OFFSET -1.561200 -12.956299 3.590200
								CHANNELS 3 Xrotation Yrotation Zrotation
								End Site
								{
									OFFSET 0.000000 13.534866 0.000000
								}
							}
						}
						JOINT HairA
						{
							OFFSET 9.713100 17.437393 1.467900
							CHANNELS 3 Xrotation Yrotation Zrotation
							JOINT HairA1
							{
								OFFSET 1.561200 -12.956299 3.590200
								CHANNELS 3 Xrotation Yrotation Zrotation
								End Site
								{
									OFFSET 0.000000 13.534866 0.000000
								}
							}
						}
						JOINT HairC
						{
							OFFSET 9.713100 17.437393 -1.325900
							CHANNELS 3 Xrotation Yrotation Zrotation
							JOINT HairC1
							{
								OFFSET 3.290300 -11.051193 1.062200
								CHANNELS 3 Xrotation Yrotation Zrotation
								End Site
								{
									OFFSET 0.000000 11.579437 0.000000
								}
							}
						}
					}
				}
				JOINT LeftShoulder
				{
					OFFSET 5.101800 15.108002 -2.763700
					CHANNELS 3 Xrotation Yrotation Zrotation
					JOINT LeftArm
					{
						OFFSET 9.825497 2.506317 -1.597400
						CHANNELS 3 Xrotation Yrotation Zrotation
						JOINT LeftForeArm
						{
							OFFSET 21.966244 0.000000 0.000000
							CHANNELS 3 Xrotation Yrotation Zrotation
							JOINT LeftHand
							{
								OFFSET 33.879036 0.000000 0.000000
								CHANNELS 3 Xrotation Yrotation Zrotation
								JOINT LeftHandThumb1
								{
									OFFSET 6.715286 -2.359680 3.363841
									CHANNELS 3 Xrotation Yrotation Zrotation
									JOINT LeftHandThumb2
									{
										OFFSET 2.507072 -1.447464 1.447461
										CHANNELS 3 Xrotation Yrotation Zrotation
										JOINT LeftHandThumb3
										{
											OFFSET 2.898338 -1.673355 1.673357
											CHANNELS 3 Xrotation Yrotation Zrotation
											End Site
											{
												OFFSET -0.295959 3.727692 -0.131651
											}
										}
									}
								}
								JOINT LeftHandIndex1
								{
									OFFSET 14.190811 -0.254547 3.840278
									CHANNELS 3 Xrotation Yrotation Zrotation
									JOINT LeftHandIndex2
									{
										OFFSET 3.551727 0.000000 -0.000000
										CHANNELS 3 Xrotation Yrotation Zrotation
										JOINT LeftHandIndex3
										{
											OFFSET 2.894196 0.000000 0.000000
											CHANNELS 3 Xrotation Yrotation Zrotation
											End Site
											{
												OFFSET -1.000603 2.690872 0.366626
											}
										}
									}
								}
								JOINT LeftHandMiddle1
								{
									OFFSET 13.776489 0.000000 0.000000
									CHANNELS 3 Xrotation Yrotation Zrotation
									JOINT LeftHandMiddle2
									{
										OFFSET 3.438232 0.000000 0.000000
										CHANNELS 3 Xrotation Yrotation Zrotation
										JOINT LeftHandMiddle3
										{
											OFFSET 3.691551 0.000000 0.000000
											CHANNELS 3 Xrotation Yrotation Zrotation
											End Site
											{
												OFFSET -1.082298 3.499527 0.457670
											}
										}
									}
								}
								JOINT LeftHandRing1
								{
									OFFSET 13.966164 -0.268127 -3.067488
									CHANNELS 3 Xrotation Yrotation Zrotation
									JOINT LeftHandRing2
									{
										OFFSET 3.162567 0.000000 0.000000
										CHANNELS 3 Xrotation Yrotation Zrotation
										JOINT LeftHandRing3
										{
											OFFSET 3.324348 0.000000 0.000000
											CHANNELS 3 Xrotation Yrotation Zrotation
											End Site
											{
												OFFSET -0.861900 3.184998 0.405154
											}
										}
									}
								}
								JOINT LeftHandPinky1
								{
									OFFSET 13.131393 -0.168503 -5.746925
									CHANNELS 3 Xrotation Yrotation Zrotation
									JOINT LeftHandPinky2
									{
										OFFSET 2.849182 0.000000 0.000000
										CHANNELS 3 Xrotation Yrotation Zrotation
										JOINT LeftHandPinky3
										{
											OFFSET 2.805038 0.000000 0.000000
											CHANNELS 3 Xrotation Yrotation Zrotation
											End Site
											{
												OFFSET -0.882500 2.642609 0.325652
											}
										}
									}
								}
							}
							JOINT Left_Sleeve
							{
								OFFSET 6.592125 -0.646545 0.805568
								CHANNELS 3 Xrotation Yrotation Zrotation
								End Site
								{
									OFFSET -0.000179 20.275787 -0.000000
								}
							}
						}
					}
				}
				JOINT RightShoulder
				{
					OFFSET -5.731700 15.108002 -2.763700
					CHANNELS 3 Xrotation Yrotation Zrotation
					JOINT RightArm
					{
						OFFSET -9.825497 2.506317 -1.597400
						CHANNELS 3 Xrotation Yrotation Zrotation
						JOINT RightForeArm
						{
							OFFSET -21.966242 0.000000 0.000000
							CHANNELS 3 Xrotation Yrotation Zrotation
							JOINT RightHand
							{
								OFFSET -33.879032 0.000000 0.000000
								CHANNELS 3 Xrotation Yrotation Zrotation
								JOINT RightHandThumb1
								{
									OFFSET -6.715286 -2.359680 3.363841
									CHANNELS 3 Xrotation Yrotation Zrotation
									JOINT RightHandThumb2
									{
										OFFSET -2.507072 -1.447464 1.447461
										CHANNELS 3 Xrotation Yrotation Zrotation
										JOINT RightHandThumb3
										{
											OFFSET -2.898338 -1.673355 1.673357
											CHANNELS 3 Xrotation Yrotation Zrotation
											End Site
											{
												OFFSET 0.295959 3.727692 -0.131651
											}
										}
									}
								}
								JOINT RightHandIndex1
								{
									OFFSET -14.190811 -0.254547 3.840278
									CHANNELS 3 Xrotation Yrotation Zrotation
									JOINT RightHandIndex2
									{
										OFFSET -3.551727 0.000000 -0.000000
										CHANNELS 3 Xrotation Yrotation Zrotation
										JOINT RightHandIndex3
										{
											OFFSET -2.894196 0.000000 0.000000
											CHANNELS 3 Xrotation Yrotation Zrotation
											End Site
											{
												OFFSET 1.000603 2.690872 0.366626
											}
										}
									}
								}
								JOINT RightHandMiddle1
								{
									OFFSET -13.776489 0.000000 0.000000
									CHANNELS 3 Xrotation Yrotation Zrotation
									JOINT RightHandMiddle2
									{
										OFFSET -3.438232 0.000000 0.000000
										CHANNELS 3 Xrotation Yrotation Zrotation
										JOINT RightHandMiddle3
										{
											OFFSET -3.691551 0.000000 0.000000
											CHANNELS 3 Xrotation Yrotation Zrotation
											End Site
											{
												OFFSET 1.082298 3.499527 0.457670
											}
										}
									}
								}
								JOINT RightHandRing1
								{
									OFFSET -13.966164 -0.268127 -3.067488
									CHANNELS 3 Xrotation Yrotation Zrotation
									JOINT RightHandRing2
									{
										OFFSET -3.162567 0.000000 0.000000
										CHANNELS 3 Xrotation Yrotation Zrotation
										JOINT RightHandRing3
										{
											OFFSET -3.324348 0.000000 0.000000
											CHANNELS 3 Xrotation Yrotation Zrotation
											End Site
											{
												OFFSET 0.861900 3.184998 0.405154
											}
										}
									}
								}
								JOINT RightHandPinky1
								{
									OFFSET -13.131393 -0.168503 -5.746925
									CHANNELS 3 Xrotation Yrotation Zrotation
									JOINT RightHandPinky2
									{
										OFFSET -2.849182 0.000000 0.000000
										CHANNELS 3 Xrotation Yrotation Zrotation
										JOINT RightHandPinky3
										{
											OFFSET -2.805038 0.000000 0.000000
											CHANNELS 3 Xrotation Yrotation Zrotation
											End Site
											{
												OFFSET 0.882500 2.642609 0.325652
											}
										}
									}
								}
							}
							JOINT Right_Sleeve
							{
								OFFSET -6.592125 -0.646545 0.805568
								CHANNELS 3 Xrotation Yrotation Zrotation
								End Site
								{
									OFFSET 0.000179 20.275787 -0.000000
								}
							}
						}
					}
				}
				JOINT Bind_Right_JacketString
				{
					OFFSET -3.534800 11.969597 7.200700
					CHANNELS 3 Xrotation Yrotation Zrotation
					JOINT Bind_Right_JacketString1
					{
						OFFSET -0.319900 -6.102600 2.794100
						CHANNELS 3 Xrotation Yrotation Zrotation
						End Site
						{
							OFFSET 0.000000 6.719452 0.000000
						}
					}
				}
				JOINT Bind_Left_JacketString
				{
					OFFSET 2.904800 11.969597 7.200700
					CHANNELS 3 Xrotation Yrotation Zrotation
					JOINT Bind_Left_JacketString1
					{
						OFFSET 0.364800 -5.904503 3.186800
						CHANNELS 3 Xrotation Yrotation Zrotation
						End Site
						{
							OFFSET 0.000000 6.719513 0.000000
						}
					}
				}
				JOINT HairE
				{
					OFFSET 5.915200 17.612701 -11.592200
					CHANNELS 3 Xrotation Yrotation Zrotation
					JOINT HairE1
					{
						OFFSET 0.289200 -7.171898 -1.284500
						CHANNELS 3 Xrotation Yrotation Zrotation
						End Site
						{
							OFFSET 0.000000 7.291756 0.000000
						}
					}
				}
				JOINT HairF
				{
					OFFSET -0.864800 17.612701 -11.592200
					CHANNELS 3 Xrotation Yrotation Zrotation
					JOINT HairF1
					{
						OFFSET 0.000000 -14.087097 -2.127501
						CHANNELS 3 Xrotation Yrotation Zrotation
						End Site
						{
							OFFSET 0.000000 14.246841 0.000000
						}
					}
				}
				JOINT HairG
				{
					OFFSET -8.087700 17.612701 -11.592200
					CHANNELS 3 Xrotation Yrotation Zrotation
					JOINT HairG1
					{
						OFFSET -0.293600 -6.081398 -0.910100
						CHANNELS 3 Xrotation Yrotation Zrotation
						End Site
						{
							OFFSET 0.000000 6.156120 0.000000
						}
					}
				}
			}
		}
	}
	JOINT Pouch
	{
		OFFSET 0.000000 4.394501 10.847300
		CHANNELS 3 Xrotation Yrotation Zrotation
		End Site
		{
			OFFSET 0.000000 21.880577 0.000000
		}
	}
	JOINT Bag
	{
		OFFSET -13.229000 4.813004 -0.593300
		CHANNELS 3 Xrotation Yrotation Zrotation
		End Site
		{
			OFFSET 0.000000 21.880577 0.000000
		}
	}
	JOINT OccupyGuyFacialAnim_Joint
	{
		OFFSET 1.000000 -70.206398 -1.655000
		CHANNELS 3 Xrotation Yrotation Zrotation
		End Site
		{
			OFFSET 0.000000 21.880577 0.000000
		}
	}
}
MOTION
Frames: 4
Frame Time: 0.016667
-0.737686 60.645119 0.760032 11.682584 -49.446410 11.201353 0.000000 -0.000002 0.000000 -62.354996 29.780912 41.562316 46.271598 -20.448676 3.240057 -1.174295 1.237411 -9.131534 -0.000000 -0.000002 0.000000 0.000000 -0.000000 -0.000000 -32.413667 -1.686939 -23.577053 54.930533 2.258356 -6.882800 -29.998905 -3.201469 23.245333 -0.000000 0.000000 0.000000 -0.000001 0.000001 0.000001 10.969134 2.808494 -1.964423 6.100701 5.566534 -4.284681 -5.786913 6.328138 -3.046182 2.318310 9.363385 -0.265398 -4.146497 23.161925 -3.523237 -0.000001 0.000000 0.000000 -0.000001 0.000000 0.000000 -0.000001 0.000000 0.000000 -0.000001 0.000000 0.000000 -0.000001 -0.000000 0.000000 -0.000001 0.000000 0.000000 -0.000001 -0.000000 0.000000 -0.000001 0.000000 0.000000 -0.000001 0.000000 0.000000 -1.875353 -16.181763 -2.870481 -10.644660 2.164766 -45.510599 -22.862400 -25.786285 -15.871766 2.491056 -2.511851 6.860511 18.457973 -9.513784 13.216595 -1.150204 11.255351 -8.400836 0.000003 0.000005 -0.000004 -1.232799 -5.771930 -0.192337 0.133932 -0.197644 -4.602139 0.000002 0.000001 -0.000000 1.884732 4.663373 -4.597413 0.476690 -1.009840 -12.986417 -0.000001 -0.000000 -0.000003 3.024602 7.938934 -14.103488 -0.708003 -0.566222 -18.895727 -0.000004 -0.000001 -0.000003 2.010380 6.305955 -22.386538 -0.815406 -0.210769 -16.746481 0.000001 0.000001 0.000003 0.000000 -0.000002 0.000002 -5.074622 24.343757 1.482673 6.642352 -34.733745 57.610419 -21.032014 44.833816 19.961675 -0.087218 35.608495 7.474261 55.149529 18.649517 -29.698277 -0.442544 -14.180548 7.313159 -0.000000 0.000000 0.000000 5.673389 7.585006 36.844168 1.050462 3.824544 68.900223 0.000003 -0.000001 -0.000003 -0.125719 1.886075 45.000776 -1.168996 3.204686 68.417650 -0.000001 -0.000001 0.000004 -5.312007 1.216665 58.508780 -0.745226 1.667567 48.011288 0.000002 -0.000000 0.000002 -7.756832 -9.376447 47.264001 -0.526024 1.541566 45.600532 -0.000001 -0.000001 -0.000001 0.000003 -0.000002 -0.000002 -0.000001 -0.000002 0.000001 0.000001 -0.000002 0.000000 -0.000001 -0.000002 0.000001 -0.000001 -0.000002 0.000001 -0.000001 -0.000002 0.000001 0.000001 -0.000002 0.000001 -0.000001 -0.000002 0.000001 -0.000001 -0.000002 0.000001 -0.000001 -0.000002 0.000001 0.000001 -0.000002 0.000001 0.000000 -0.000002 0.000000 0.000000 -0.000002 0.000000 0.000000 -0.000002 0.000000 
-0.757500 60.651154 0.857163 11.203125 -51.061576 10.844374 -0.000000 -0.000003 0.000000 -61.277138 29.435158 42.253401 46.906672 -20.522876 3.319250 -2.276665 1.607930 -9.791512 -0.000000 -0.000002 -0.000000 -0.000006 0.000001 -0.000000 -32.358175 -1.433127 -23.482074 54.879583 3.168092 -6.850112 -29.886985 -2.508692 22.912074 -0.000000 0.000000 -0.000000 0.000002 -0.000002 0.000000 10.987507 2.813916 -1.958044 6.138153 5.594449 -4.285145 -5.748711 6.468370 -2.981399 2.489922 9.336455 -0.252152 -3.932299 23.122436 -3.588222 0.000000 -0.000000 0.000000 0.000000 -0.000000 0.000000 0.000000 -0.000000 -0.000000 0.000000 -0.000000 -0.000000 0.000000 0.000000 0.000000 0.000000 -0.000000 -0.000000 0.000000 0.000000 0.000000 0.000000 -0.000000 0.000000 0.000000 -0.000000 0.000000 -1.831980 -15.691461 -2.734875 -10.284162 1.988965 -45.432827 -22.867634 -26.152793 -16.049799 2.735565 -2.483698 6.839550 18.499222 -9.524830 13.108593 -1.077103 11.351605 -8.411993 0.000004 -0.000000 0.000001 -1.131487 -5.650989 -0.728761 0.094708 -0.195230 -5.161568 -0.000000 0.000002 -0.000002 1.871905 4.626714 -5.322334 0.428607 -1.020180 -13.711994 -0.000003 0.000002 -0.000002 2.961956 7.871815 -14.814784 -0.750698 -0.567337 -19.622473 0.000003 0.000000 -0.000002 1.926221 6.257265 -23.049054 -0.855971 -0.211683 -17.424841 0.000001 -0.000000 -0.000001 0.000001 0.000004 -0.000004 -5.284797 25.012604 1.987641 5.891127 -33.544159 56.610377 -21.351976 45.089846 20.683973 2.377850 34.175989 4.611999 55.149526 18.649514 -29.698274 -0.442541 -14.180541 7.313158 -0.000000 -0.000002 -0.000000 5.673388 7.585009 36.844168 1.050464 3.824544 68.900230 0.000002 -0.000001 0.000000 -0.125717 1.886071 45.000773 -1.168998 3.204690 68.417650 0.000002 -0.000001 -0.000001 -5.312008 1.216668 58.508773 -0.745226 1.667562 48.011292 0.000001 0.000000 0.000001 -7.756830 -9.376447 47.263997 -0.526023 1.541566 45.600532 -0.000000 0.000000 0.000001 0.000000 0.000000 -0.000003 -0.000001 -0.000000 -0.000000 0.000000 -0.000002 0.000000 -0.000001 -0.000000 -0.000000 -0.000001 -0.000000 -0.000000 -0.000001 -0.000000 -0.000000 0.000000 -0.000002 0.000001 -0.000001 -0.000000 -0.000000 -0.000001 -0.000000 -0.000000 -0.000001 -0.000000 -0.000000 0.000000 -0.000002 0.000001 -0.000000 -0.000003 0.000000 -0.000000 -0.000003 0.000000 -0.000000 -0.000003 0.000000 
-0.792726 60.640274 0.980162 10.660070 -52.599628 10.469081 0.000000 0.000001 -0.000000 -60.171986 28.524718 42.237436 48.800431 -19.613829 3.596874 -3.938643 2.508326 -9.202746 -0.000000 -0.000001 0.000000 -0.000003 0.000001 -0.000000 -32.067759 -0.806653 -23.193849 54.845992 3.727311 -6.919288 -29.837842 -2.134212 22.797939 -0.000000 -0.000002 -0.000000 -0.000000 0.000001 -0.000000 11.039086 2.816510 -1.937184 6.244013 5.671767 -4.285781 -5.640074 6.608163 -2.917738 2.645276 9.260209 -0.213893 -3.676953 23.009495 -3.772378 0.000000 0.000000 0.000000 0.000000 0.000000 0.000000 0.000000 0.000000 0.000000 0.000000 0.000000 0.000000 0.000000 0.000000 0.000000 0.000000 0.000000 0.000000 0.000000 0.000000 0.000000 0.000000 0.000000 0.000000 0.000000 0.000000 0.000000 -1.772855 -15.071251 -2.573300 -9.648131 1.878014 -45.209278 -22.751854 -26.556768 -16.251539 3.425993 -2.405849 6.778299 18.614356 -9.555877 12.806407 -0.869294 11.618029 -8.438109 -0.000001 0.000002 -0.000004 -0.835810 -5.325769 -2.231413 -0.013379 -0.184468 -6.726215 0.000002 0.000000 -0.000002 1.834804 4.529839 -7.349801 0.295688 -1.043545 -15.741549 0.000005 0.000000 0.000002 2.782701 7.699093 -16.805737 -0.868378 -0.565357 -21.655168 -0.000001 0.000001 0.000002 1.688312 6.136090 -24.903442 -0.968001 -0.209437 -19.322209 0.000001 -0.000001 0.000001 0.000003 0.000000 0.000003 -5.414784 24.900594 2.343740 4.830036 -31.450446 55.681679 -21.606738 44.967414 21.111018 4.968148 32.756003 1.699194 55.149526 18.649514 -29.698277 -0.442542 -14.180541 7.313158 0.000000 -0.000002 0.000000 5.673390 7.585006 36.844165 1.050463 3.824543 68.900230 0.000001 -0.000001 0.000007 -0.125720 1.886075 45.000780 -1.168994 3.204685 68.417650 0.000003 -0.000001 0.000001 -5.312010 1.216667 58.508780 -0.745226 1.667563 48.011285 0.000001 0.000000 0.000002 -7.756829 -9.376446 47.263994 -0.526024 1.541565 45.600532 0.000001 -0.000000 0.000000 0.000001 -0.000003 0.000004 -0.000001 -0.000001 -0.000001 0.000000 -0.000001 -0.000001 -0.000001 -0.000001 -0.000000 -0.000001 -0.000001 -0.000000 -0.000001 -0.000001 -0.000001 0.000000 -0.000001 -0.000001 -0.000001 -0.000001 -0.000000 -0.000001 -0.000001 -0.000000 -0.000001 -0.000001 -0.000001 0.000000 -0.000001 -0.000001 0.000000 0.000001 -0.000000 0.000000 0.000001 -0.000000 0.000000 0.000001 -0.000000 
-0.841531 60.612007 1.123799 10.060254 -54.086724 10.062256 0.000000 -0.000000 0.000000 -59.071219 27.124597 41.624628 51.446337 -17.954715 3.989961 -5.690658 3.786680 -8.036465 -0.000000 0.000001 -0.000000 -0.000002 0.000000 -0.000000 -31.596346 0.137734 -22.740760 54.839865 3.998584 -7.070740 -29.857834 -2.021483 22.862568 -0.000000 -0.000002 -0.000000 -0.000001 -0.000002 -0.000001 11.119163 2.821217 -1.897571 6.408562 5.788710 -4.285501 -5.470565 6.747025 -2.854225 2.788232 9.140426 -0.154536 -3.388278 22.831775 -4.057897 0.000001 0.000000 -0.000000 0.000001 0.000000 -0.000000 0.000001 0.000000 -0.000000 0.000001 0.000000 -0.000000 -0.000000 0.000000 -0.000000 0.000001 0.000000 -0.000000 -0.000000 0.000000 -0.000000 0.000001 0.000000 -0.000000 0.000001 0.000000 -0.000000 -1.680937 -14.154087 -2.352880 -8.774219 1.650370 -44.932102 -22.530357 -26.999731 -16.467777 4.497328 -2.288673 6.678765 18.789972 -9.604246 12.342656 -0.550072 12.026278 -8.480237 0.000001 -0.000000 -0.000001 -0.348419 -4.866016 -4.542069 -0.174151 -0.156919 -9.125375 0.000003 0.000001 -0.000002 1.775580 4.397493 -10.459165 0.097240 -1.063976 -18.853841 -0.000002 0.000004 0.000001 2.498702 7.477350 -19.862566 -1.042444 -0.547693 -24.771923 0.000000 0.000001 0.000001 1.318466 5.993287 -27.751381 -1.134460 -0.192165 -22.231455 -0.000003 -0.000002 0.000003 -0.000002 0.000002 -0.000001 -5.461417 25.266483 2.495339 3.915312 -29.781524 55.120016 -21.873956 44.541986 21.371838 7.589056 31.575678 -1.256852 55.149533 18.649519 -29.698277 -0.442542 -14.180544 7.313158 -0.000002 -0.000004 -0.000000 5.673388 7.585010 36.844171 1.050460 3.824544 68.900223 0.000003 -0.000001 0.000005 -0.125720 1.886078 45.000783 -1.168995 3.204689 68.417657 0.000003 0.000001 -0.000004 -5.312007 1.216667 58.508780 -0.745226 1.667563 48.011288 0.000002 -0.000001 -0.000000 -7.756832 -9.376448 47.263997 -0.526024 1.541562 45.600529 -0.000003 -0.000000 0.000000 0.000002 -0.000001 -0.000002 -0.000000 0.000001 -0.000001 -0.000000 -0.000000 -0.000001 -0.000000 0.000001 -0.000001 -0.000000 0.000001 -0.000001 -0.000000 0.000001 -0.000001 -0.000000 -0.000000 -0.000001 -0.000000 0.000001 -0.000001 -0.000000 0.000001 -0.000001 -0.000000 0.000001 -0.000001 -0.000000 -0.000000 -0.000001 0.000000 -0.000000 0.000000 0.000000 -0.000000 0.000000 0.000000 -0.000000 0.000000 
